<?xml version="1.0" standalone="no"?>
<!DOCTYPE svg PUBLIC "-//W3C//DTD SVG 20010904//EN"
 "http://www.w3.org/TR/2001/REC-SVG-20010904/DTD/svg10.dtd">
<svg version="1.0" xmlns="http://www.w3.org/2000/svg"
 width="93.000000pt" height="93.000000pt" viewBox="0 0 93.000000 93.000000"
 preserveAspectRatio="xMidYMid meet">
<metadata>
Created by potrace 1.14, written by Peter Selinger 2001-2017
</metadata>
<g transform="translate(0.000000,93.000000) scale(0.100000,-0.100000)"
fill="#000000" stroke="none">
<path d="M390 883 c-205 -38 -367 -230 -371 -439 -1 -29 2 -66 6 -83 6 -29 10
-31 48 -31 32 0 38 -3 29 -12 -19 -19 -14 -37 13 -44 21 -5 23 -9 14 -25 -13
-24 -4 -39 23 -39 17 0 20 -5 16 -29 -4 -27 -2 -28 25 -24 26 4 29 2 24 -16
-5 -21 9 -31 44 -31 17 0 24 -16 20 -42 0 -4 11 -3 26 3 25 9 42 0 43 -23 0
-13 18 -9 34 7 14 14 17 13 31 -9 17 -25 17 -25 37 -6 21 19 21 19 39 -1 l17
-20 16 23 c14 20 19 21 37 9 22 -13 31 -8 42 24 2 6 13 5 29 -2 24 -11 26 -10
32 18 5 26 8 28 31 19 14 -5 25 -6 26 -2 1 4 2 16 3 27 1 14 8 20 26 20 21 0
25 4 22 28 -2 23 1 27 23 27 22 0 25 3 20 29 -4 24 -1 31 16 36 16 5 19 12 15
31 -6 22 -3 24 29 24 21 0 38 6 41 14 9 24 11 120 3 144 -6 14 -5 22 2 22 8 0
7 5 -1 15 -7 9 -14 26 -15 38 0 12 -7 33 -15 47 -8 14 -15 31 -16 37 -1 7 -9
20 -18 29 -21 20 -21 21 12 53 34 35 39 79 12 109 -34 36 -85 33 -119 -8 l-24
-29 -28 20 c-72 51 -222 80 -319 62z m164 -58 c61 -13 176 -69 176 -85 0 -4
-25 -32 -56 -64 l-56 -57 -48 20 c-113 49 -243 7 -298 -94 -21 -39 -24 -51
-24 -107 -1 -45 -3 -48 -27 -49 -42 -1 -125 -1 -139 0 -9 1 -11 19 -7 74 8
100 7 97 16 97 4 0 10 12 13 26 16 63 99 159 170 197 52 28 80 37 136 47 67
11 69 11 144 -5z m290 -30 c7 -20 -23 -33 -34 -14 -5 7 -6 17 -4 21 9 13 32 9
38 -7z m-30 -155 c48 -88 76 -218 52 -245 -8 -10 -154 -10 -164 0 -3 3 -6 29
-7 58 -1 35 -9 67 -22 90 l-21 35 56 56 c31 31 61 56 67 56 7 0 24 -23 39 -50z
m-277 -45 c86 -36 131 -139 97 -221 -7 -17 -10 -34 -7 -38 4 -3 37 -6 75 -6
39 0 68 -4 68 -10 0 -5 -7 -10 -16 -10 -12 0 -15 -7 -12 -25 4 -19 1 -25 -13
-25 -13 0 -19 -7 -19 -24 0 -17 -5 -23 -17 -22 -11 2 -20 -5 -24 -18 -3 -15
-12 -20 -27 -18 -16 2 -22 -2 -22 -16 0 -15 -5 -18 -25 -14 -17 3 -27 -1 -31
-12 -5 -13 -9 -14 -21 -4 -12 10 -18 9 -28 -5 -8 -12 -15 -14 -20 -8 -9 15
-45 14 -45 -1 0 -7 -7 -4 -16 7 -12 17 -17 18 -35 7 -18 -12 -21 -11 -26 7 -6
24 -14 26 -30 10 -8 -8 -13 -5 -18 10 -5 15 -13 21 -28 19 -16 -2 -22 2 -22
17 0 15 -6 19 -23 18 -19 -2 -22 1 -18 22 4 21 1 25 -20 25 -22 0 -23 2 -14
21 10 17 8 21 -9 26 -45 12 -17 23 55 23 68 0 75 2 69 18 -40 101 -2 207 90
248 40 18 88 17 132 -1z"/>
<path d="M435 526 c-81 -35 -87 -144 -10 -180 61 -29 135 6 140 66 0 3 3 9 6
13 19 18 -36 105 -65 105 -8 0 -20 2 -28 5 -7 2 -27 -2 -43 -9z m75 -61 c17
-21 4 -64 -23 -74 -46 -18 -84 54 -43 81 18 13 53 9 66 -7z"/>
</g>
</svg>
